<svg version="1.0" xmlns="http://www.w3.org/2000/svg" width="300.000000pt" height="288.000000pt" viewBox="0 0 300.000000 288.000000" preserveAspectRatio="xMidYMid meet">
<metadata fill="#ffffff">
Created by potrace 1.10, written by Peter Selinger 2001-2011
</metadata>
<g transform="translate(0.000000,288.000000) scale(0.100000,-0.100000)" fill="#ffffff" stroke="none">
<path d="M526 2308 l-26 -23 -1 -324 c-1 -302 0 -325 17 -342 17 -15 43 -18 206 -23 176 -4 189 -3 213 15 29 23 32 45 9 77 -14 21 -22 22 -163 22 -114 0 -151 3 -160 14 -8 9 -11 83 -9 247 l3 234 309 3 c259 2 319 0 365 -14 68 -20 141 -57 170 -88 l22 -24 -391 -388 c-486 -483 -571 -568 -582 -588 -5 -9 -9 -141 -8 -293 0 -264 1 -279 20 -298 20 -20 35 -20 596 -22 l575 -3 25 25 24 24 0 269 c0 338 16 312 -188 312 -78 0 -142 4 -142 9 0 5 26 30 57 57 204 175 293 344 293 555 0 67 -6 101 -30 168 -16 46 -39 99 -50 118 -11 19 -20 42 -20 52 0 10 27 43 60 75 l60 56 205 0 204 0 3 -285 c4 -357 -12 -328 188 -331 78 0 145 -5 151 -11 6 -6 8 -100 7 -234 l-3 -224 -140 -3 c-147 -2 -180 -10 -191 -46 -4 -12 -8 -104 -9 -206 -1 -102 -2 -202 -3 -222 l-2 -38 -143 0 c-157 0 -187 -9 -187 -56 0 -54 17 -59 216 -62 l183 -3 23 26 c22 26 23 35 28 253 l5 227 147 5 c210 7 193 -24 193 348 0 317 -4 347 -48 357 -12 3 -83 6 -157 8 l-135 2 -5 286 c-5 264 -7 289 -24 308 -18 20 -27 21 -283 21 l-264 0 -57 -52 c-31 -29 -65 -63 -75 -75 -25 -31 -39 -29 -107 17 -146 99 -209 110 -625 110 -322 0 -324 0 -349 -22z m762 -33 c77 -18 162 -60 231 -115 l53 -42 87 86 86 86 263 0 262 0 0 -310 0 -310 175 0 175 0 0 -315 0 -315 -175 0 -175 0 0 -255 0 -255 -190 0 c-183 0 -190 1 -190 20 0 19 7 20 170 20 l170 0 0 255 0 255 175 0 175 0 0 275 0 275 -175 0 -175 0 0 310 0 310 -232 0 -233 0 -82 -81 c-46 -45 -83 -83 -83 -85 0 -2 17 -30 38 -62 21 -33 49 -94 61 -137 30 -101 26 -257 -9 -348 -51 -133 -192 -295 -353 -405 l-69 -47 218 -5 219 -5 0 -273 0 -272 -587 0 -588 0 0 279 0 279 505 498 506 497 -32 33 c-18 18 -62 49 -99 68 -118 62 -147 66 -512 66 l-328 0 0 -290 0 -290 180 0 c173 0 180 -1 180 -20 0 -19 -7 -20 -200 -20 l-200 0 0 330 0 330 348 0 c271 0 361 -4 410 -15z" fill="#ffffff"/>
<path d="M1524 2017 c-22 -23 -246 -247 -497 -497 l-457 -454 0 -248 0 -248 548 0 547 0 0 235 0 235 -217 0 -218 0 1 33 c0 29 10 39 90 97 115 83 234 203 282 282 104 172 105 386 2 551 -20 31 -37 57 -38 57 -1 -1 -20 -20 -43 -43z m66 -69 c73 -139 72 -292 -1 -442 -39 -81 -160 -209 -292 -310 -93 -71 -114 -99 -103 -140 12 -48 47 -56 245 -56 179 0 180 0 183 -22 2 -13 2 -101 0 -196 l-3 -172 -502 2 -502 3 -2 220 -3 220 472 468 c260 257 475 467 479 467 4 0 17 -19 29 -42z" fill="#ffffff"/>
</g>
</svg>